<mxfile host="app.diagrams.net" modified="2024-04-29T12:44:41.329Z" agent="Mozilla/5.0 (Windows NT 10.0; Win64; x64) AppleWebKit/537.36 (KHTML, like Gecko) Chrome/124.0.0.0 Safari/537.36" etag="GXto1tjKz9O_8qnlIZvj" version="24.3.1" type="github">
  <diagram name="Page-1" id="qPZybV3zCfEUb5zGRMGi">
    <mxGraphModel dx="1876" dy="964" grid="1" gridSize="10" guides="1" tooltips="1" connect="1" arrows="1" fold="1" page="1" pageScale="1" pageWidth="2500" pageHeight="1100" math="0" shadow="0">
      <root>
        <mxCell id="0" />
        <mxCell id="1" parent="0" />
        <mxCell id="w3rlq9oTvEazoZ1RIOvX-1" value="" style="shape=image;verticalLabelPosition=bottom;labelBackgroundColor=default;verticalAlign=top;aspect=fixed;imageAspect=0;image=data:image/png,iVBORw0KGgoAAAANSUhEUgAAAlAAAAH7CAYAAAAD0aH1AAAAAXNSR0IArs4c6QAAAARnQU1BAACxjwv8YQUAAAAJcEhZcwAADsMAAA7DAcdvqGQAAFg5SURBVHhe7d29bvJK14Dh9X5NTgQpQkg07nIESCmcji4SXbo0EWWKlOhp0qWzlI4uFJE4gnRukBCKxIlQ7W9mPDa2wdiDzW/uS/LeeULwz9gwy7PGM/9brVb/CQAAACr7P/t/AAAAVEQABQAA4IgACgAAwBEBFAAAgCMCKAAAAEcEUAAAAI4IoAAAABwRQAEAADgigAIAAHBEAIUrMZWnmzt5X9p/4iws3+/k5ubGLk/qLKXpcxa/ppan7KtAPfr6yl9z+1hfp3d8wSDlDAKopbzfbfty3WS+jO/e1TsuQXRcV1EnLN/lLlXRnd+XiC5rX2ajT3lu2V8lql9f1+kMjn8wkdVqpZYP6dlfRXryYX6/ksnA/qpx137+T318zW2/+e/3nryMZuLX3Lfpky+BvYZ/Nr9g8IddfQvUZQVd7g5/fOoL8nEoMprbSvD8vkSW748ylJF8HmC/zv36ufbr+9T4/rhsredPGXmB+HvfyS7ld6buAR6yoT+gnUEA1ZLnn213pzgPS1mEnvTvz/TOa/kuJr77fFZX0jZ//fri+K/7+E99fOdevmr/PkfiBW+k99G4vQMoc+ey0TQa5YrXKZ64eTdesn8frWP7a7Hp0/r9nWFof1suXrd5TziUTrKdbD+Z9Pr1sr5Rifb9aZrtp+F+I5Mtg/T7zT7qX0yfktfzZZfZnv47e7e41/E1fqdZ4fwWHp+VSw/m97Fs/5ffYwm9vmyL73ZfX9vO77rsqpZvkej9ZZ+P3ce3q/yq7N/u47dqln/x5+f0dh//Yc9/2fqbcNrjq7f9WPr6MfuSU3j9xddt+oKzn5ON75jWvfS9UMbfFQ8MqGjvAKr1/CoDCeQr/amZfqnfDOTVpFL0B6gjw27c/2El81w+uvX8E71W0AFCf3h8Sb/fs6+Ui9dt3uONZG7XsVr9JP1k9BeAP0u/tpKP3G1U4Psik/X2A7+gIioQ+B1ZvO54f+DLzVs72of5SGT4WOkLrMrx5ctv0lVflFsqwa2SSttX5zSUYSf+Iov3v/z8GruOT2+jM5SuLV+z/Kxbkqrs/3IRite/T96TVnZ9aYH/Ju25Xf9AHedjtP4q5btL+eej4vkpKL8q+1d6/DXLv8rn55ROef5jRetvwqmPr872tbLv953XX+tZftTnwVOfjyiGUoGaH6hDmW/pYtCS+74n4WKfko9a4NsO5xx/R40Unu6gpwKCVA0x/Qp0sjhqyl1+yzgcyCT1jbq1Uimi7jDeAk9GLwf+Rg7HsuvGZKAql/gQov2fya/D57D8/aqM4kqrdStdFazs9TnfMJWvXPn1XtQXTsnxJnof9otrovZQrcd+CSZN9ZXPb/HxRdfLpKDSrbL/Uf+EOgaTdYXReyiuCNyVfD4qn59DXR9NlL9S9Xo6U4c7/5FDr7/M2W6/9Pu9wvWngqhP/Rl7e5d329F7Z//M2W8SvJWLW86+5MExaMbfUasPVOu+r+4AvtSlpuUu+OVCfdXntaSdvcko0ZXbA164+g7K3NTHrSuVWmfqVmC59ycVqhY9lbS9QnO0/FWhmrrjS1qO1NIZbjkne6p6fguPr6Rz5qH3/wh2fz4qHt+hro8Gyn+/zw8Q2/H9XvHzYTqJy1CGQfZmrj77hOi8LW8Np15xPep1Ije5ZdvioNMTBX1R1nRzqP2xErfWnn0kzdCrufkgdnZ14jAf6hrNuXXf70xV2EnLUbwc8m7K9fzqm8JdJ/jY+9+w0s/H6Y+vbvk7fX6AjLLv9/LrzzyB253IZBCIXxbAd2+jllwXtv9UU62+uC71Aih1OT6/DkyaQqcDBq/r/hPSezDpnPTjo2Y8DW8kha22aTZdkXT8mz5t7WRYpnXbrZhmaIn+012m/9Qd0OB17wpun/cnKSDdadIPop9TCo/PfvCH/w5UodU9v6q8Tb+Eoj5flfbfrmP8fbCWj+rXzzY7Ph8NnZ/996+J8k8r//zsJ06luPU9bEq981/FtR9fgbLv9yrXn3lP17Q89T4mMgiH8rj1Yl7K9zgUj45MaFjNAErRFWngix8MJJsN0E2g6qJWr8VNsKbDadJJNXpKw7xmAgNVGZu/i5tL1fuj/ED0N7oj7Y7OioV6H1HnxaQpeN0cqzspxvumF7N/uWbgwE+9rjs0OjYT7//++PFbW36dhbxuO/7C49OPF89lNFuXv1kaS7OUnd9yGymgzP5V23+TJlNfnJvfs2XXV0U7rp9KCj8fDZ2fwv0rP/665V/l81NfnBau2HcycSbnv9SlHl/d7Zd9v5dcf/oBCLVdb/Si1qRFfQ5Dtb6NRlDTX/OMh2LBxfrfarX6z/6MDP0FET1B13idgEaZp3Ucgzcch35Sr7N4Lb1xSJ642vJ3Zh1mLNcLSt86uPbjO63oe3zc3/Z0XhXUAyhWvwUKOLHeh7pTpf/NlYrSL1Lav/JSXfvxnVb9WQqi1HT6aVogRgC1l/TgcNuX867LL33/83Rzv04nMtrwWUrSvPl+Puvr0GSB8nSa5saONXaNrYvXfnwnN5V/uo9UzbI1/avsNbwxSCf+NFJ4AAAAjmiBAgAAcEQABQAA4IgACgAAwBEBFAAAgKMrCKDiAd1OM5JvLBpU8LT7ABfRdcNTNQCAffz5Fig9iJ3z6M9HdO77d2h//fgBAOfpCgIoPQaQnmTyww7pfxq9j9PvAwAAOI6LDqBM64QdiG8zfRalaJ6m6UEj1/M0xe81E1iGQ+ls+Zvd4tRhemkuhVd1/zLzkaVbavQgfU/T5PWnaby/8fu3lc8eA2jqSY5T78+2FuXLaLN8Mvuvlnj79c+Pq3z5xGz50AoGAEi56ABKT4a6Wq1ktWOS4cB/k/Zctw6tokkzH6OKMH7vfOSJeCOZ6/WYpep8VHHLl132meh4hyr7l8wfZl+bdFWgka7oA1/e2nOzjsDX8znNZeSlZkBXAt8XmUTvj/7OIQjUQVpnKF37frMko/7qgMSOsmxfm49m4qeCKB0kmTns4veqJZ5vqv75cWH3VfR2mI8MAFDu6vtADSbrCrH30GyQc1pT+Qo8Gb2sk4a9l5F44VjW8dFAXuODV0FI6k8TAxX8rIOWV/WOmfxWbGqZfgV6Bdsn2TQzoA9kknoxWn9u1vnM/p5CKtDbOuVDTz504MZUGwCAlD/fifxiLX9VqBPKsBOnttTSGarf1BXKolJAs5TfmYqfHrZFT8pysWVfWtL27I+KbmWaj2R9DCdIk4VDX3SWsPA4AADYggDqonkysunJ9VIjBWWCMk/aDu+fVW2uMpayyEVVSRp2NZeRDKVz5FmMvdHcpF8D/1B9qwAA1+jPB1Ct2+6B00hxJ+39OpgX7l/rXvpeKMN/zQUc039DCQevFQOwltz3PQmHj9sDj96DSdf5qYBo+uRLUJBK1OvTh5pXfn7qla/R+7AtYduCqAbWDwC4OhccQKWe8PID9W9VWZuKzrElQVWepnN5kgpruiUiTlvl+v5UVbh/uhP7XEYz3/7eLo5psMBfv9d0SN/aoWm7jRRcZvu679BEBsF6/0yH8VRfovwTeOb1/PZLz0/N8rX0scTbyTaCNbN+AMB1+d9qtfrP/ow69BNp5oG2zbGg9NNmnaHIaH5OT3hFnacXr+tO5Jfq4OVrzm2Q6XAPAPjb6AO1t6m8J00hKhh500+kPWwZSHMp3+NQxOvL/dkET9fk0OVrz21h6hEA8BcRQO2tJ/fyaNNKdgyhfPOEbrnQrxU+In+usoNrbluO3Nd7u0OXb7x+fW4ZxgAAkEIKDwAAwBEtUAAAAI4IoAAAABwRQAEAADgigAIAAHBEAAUAAOCIAAoAAMARARQAAIAjAigAAABHBFAAAACOCKAAAAAcEUABAAA4IoACAABwRAAFAADgiAAKAADAEQEUAACAIwIoAAAARwRQAAAAjgigAAAAHBFAAQAAOCKAAgAAcEQABQAA4IgAqrKpPN3cyfvS/hMN0GX6pP5bl17Pjdyo5Y4TBAA4gisIoJbyfqcrzx0V8fJd7mwFu18lq7fhy2z0Kc8t+6tEhe1XtHy/k5u7d7XGv6InL6OZ+DXLbvrkSzCYyGq1kp/NEwQAQOP+QAuUCnAehyKjualg96lkl++PMpSRfFI5N671/CkjLxD/ad8Qaim/M5HBQ8/+GwCAw7uCAKolzz86MPqQ7VXoUhahJ/37PYOf5buY+OvzWW1pm7LtYzdVfp8j8YI30qMAgItx0QGUSXklqbkm+tJsWn6PJfT6si3+2r39KLX3NF33z7nZ0odq+hS/diOdYWh/u5Z+PZPei9OS6Zab6ZP5u/PoB1Tt+I3WvfS9UMbfRFAAgMtw0QFU6/knSstNBvY3KTaYuLnxJZBQhp24EncLtJaLULz+/dbWp53btwL/TdrzKHU4Gaj9eFwHQTo48iXqu6OX+cizr0Tyr0+6Q+nEQVTrWX7muuXGV0GK+Wt58gPxRvOKKcp0YJNdkvVteW39ejW7jn+tJfd9T8LFPgFU1MLY3rOBEQCAfVxvH6jehw08JjIQT0a2EndLtUX9a+oYTH6Sjue9h1SgtXyXt0Dt10vR3kzlK/d670UFTOFYkoYaFUR9qqAreHuXd9uRunr/rp582MAsv3yYTZa9Xk3h8W8z+90SXBWJA7wveVittwEAwDH8gU7k56wrt0UV//JXZpmWM7V0huo3WaYTtgxlGAxk4hLZHKkF6nBsgDdvyxvDSwAAjowA6qRm8ruz4k+3nMVLtrXFPCHYnchkEIjvNATCcVqgnHRvCzrq72D7T+2V/QMAYE8EUDvZvjnjb4fApKLWrXQl1XF6+pTtRG4Dg+G/Hc095j1d0/LU+5jIIBzK40U2xSzlexyKR0cmAMCFuOAAKh7AUi1+oP4diG9STM2mc1r3ffFUYLIZx9Tdfk8+5iORYSdax1tb5pnO6Hp4hLmMZn70erzErUy6k7zpNP6i1qTpQSlVsKfWdx4pNgfLbxnXGWoCAIAj+99qtfrP/owC5mm42UjmP0VjQWF/OhDtyLhf9enBvOj9i9cDphYBAMghhVdB72NuOmp3Lq5p5/zVH+W9JbddkeCLcwMAOB5aoCrTT6XpMY14ZL45ukz1MAR1R3HX69HjfYnDOFgAAOyPAAoAAMARKTwAAABHBFAAAACOCKAAAAAcEUBdDN1RmilL8pbvd6lxstwmio7KNDXGFk9Zwom+flyvuW3W1+EdH3DgYhBA1RYPqLnji3T5Lnepitr9S1Jvw5fZ6PMMnwCscPyHNpjYaWY2n+bTY3glAdLGVDfr6WoyY5gClejBa2fi17z2p3YicH0d8gQpcDkIoA5OBRiPQ5HR3Fby7l+S9cdK2p9p4XGaY+98JAOgmnJnLK+/6NDXr5nM2wvE3/u6WsrvTN0DPDAKLHBpCKBq01OubG/9iCxlUWeakuW7mPjr81xHQS87/lOZylfgpcpN7efrQCR4Iw2KBqnr6nMkHtcV8OcQQNVQr/9NNcvvsYReX/LxV7Tt/DajvhTpFOGuFJZZh75z1vPq2b+J3xsfm5ngOBxKJ15Hqh9WpePPpS/z+7A7xZZ7XS2Vb/SnXxJIV26TclvK+5seajOURX4jZ2z38cfp03hJn4Potczf6/OcKuNd5z9R8/wVOYfrVytcf3zc6QK029koIzvxdzIxOIA/gQCqhtbzT5SW29aBJvlS1yNkhzLsxF/UboHWchGK17/faH1qPb/KQK05M4OJCRoG8mpTfbpy8CXuH7SSSVdVJPlKLvCjiYz135jJjR9NBRMf23zk6eG9bRpML+uR2Hcev6bLoDOU7iR+r1pS8wmW7Z+uBNcpuGhxmu/Oa0fbMpWhni9vLvpwmpHrgJ5aojq37PVyu49fB0gdGXbX5Tffpz9Owfk3ap6/Xc7h+t25/taz/Kj1eWr9yfk0k3dvG+m+Jfd9T8K9IvOohbqdXyWAs0cAdSi9D/vFPFFVgiejefwF7pLqivpHbKc7sHqZOeCmX4HuTGHXb1NYL+ut9V5UhRCOJXujPJBJXCm2bqXbYAtNtD+TgqCn4v5t7K8b0xLRGUtflX+zkw2vO6Dnl2g7Za9XVHT8y28Zh+rcpVa2NSgpVXz+Gzl/hU59/VZYvwqiPvU+vr3Lu+3ovbP/4uy3UvAYiQNsPZUR00MBl4gA6oK17vvqDvlLfRVruQph+SuzTMuXWjpD9ZucpMLSokq/mUCjpHNshf3TrQimUSH+m4qtG4lwKP64L/OkgtJ3++aVBhy+BWrn8S8Xm+dShRFt1xa2wvNf//yVOen1W3H9ppO4DGUYZIPV+myAPW/LG8OTABeJAOqSmb4XtsVBpz82+kqpCilp+YqX497tzn531Qzl+5ekCV2fomu11dpV/fq6TjlFleZAmnngqayFqez1atyOv8kAMVL3/O108uu3fP3mCdjuRCaDQPyyAL57u77WqrL9py6pXx6ACAHUWbN9K8bfBV/c0ZNlOg2i0x+ZYMF+MQ//VQw4CrRuu3um0ey+p/vUpDnvX0v0rlTWepboobu40ouGkwgzLRaXJHf8vQeTrks/Pm/GE/JGkspKrVNkuh+YrzvRV9X0+dvmhNdvlfVPn6Qz7JqWp97HRAbhUB63FsZSvseheHRkAv4UAqi9pZ6AMhWTqsxMKqDZ5niT5lBf3IXf87oiDXzxg3zLih5eYC6jmb9OUejFNQ3W+1B336qiSVId8fGVH/9GCiqz/fL9051806+ZDtUOzTe9D9tqY95vO1w3moY5rN3Hr1u4VKWuzn3m9aSTd/x4vX29s5BXx9FC656/Sk52/ZasX3egN53GX2zAHfXZCoedzRSs6Y9WY6gSABfpf6vV6j/7M86UeVooUzkipjuJdxavtQOj5ImsCwqwcA6ipyHH/W1P51URvX/x2lTfQwDHQgvUBUhaUqr2/wFwFPVnCYhSs+mnEQFcBgKoi6DTDTpdw2jHWyVpLMcxkFJPyjl1D0KJ4icQ4+U67gWm8k/3karZMmz6V9lreGOQTgBnixQeAACAI1qgAAAAHBFAAQAAOCKAAgAAcEQAhYbojsNMSQEX+ppx7fi/zbrTOp2wARwLAdQ10KNM2wrkNJWIHsvGl9nos3CajWhQyCYqSzeZwShdB2F0cKrjO5bDHJ8enHImfs31mhHYBxMzFct+YzEBgDsCqIungpfHochonszndexKpP5YOIdhBsfUA5CacmEsrXNkJuv1slPSuCmZ9BgADoRhDC6eTl+8SXt+3EmCE7r1qzOW/qm2X2hLuZjpOWYq1jy3fY3ogO+tve+I1hes1jXESN4AToMWqKumK5dUCiuXKtHToNzoO38dWNi/cU3/Lb/HEm7Moq/lt725/YPSs/tLV26T/VL786ZHy8zPfG/7zzin95o8vmgfdGtZ9Va8aPtP03X/n+3zMB7++JLrqEDZ6/HEvmP3GasB4GQIoC5VEvT4KlBIT5YaV3K6ArQT6NrU3nxbfxM9AvJbO0pzmZljC2bfL7BchOL177eMxKxHT4+2axbHiWyTin/LUjnb47Wj/TJ9xHQrxVxGnnmlAXWPzzL7pvuPzWW1x4jWga9b2aJ9MJPmPjbVz6uh46ukJfd9T8JsZFvRUhahJ23XggOAmgigLlXvw1ZuExmIJyNbia5WH9Hs8WaG+IFMUnmN1vOr+ttAstNuqb+JK+7WrXQ3Wmh2ifqfHEZPPuLKO7e4pGpM64dJDxW9z27nBBM1R/s2lO5k/35rg8k67dV72BbknO74nM1+HYK/OMD+kofVeaZkAVw3AqhrtVyoUCivJe18C8zgIQq4jKiyPY++JA20QIVD8cd9mScVrG6tMK+cgaV8j89mZ5yZ4M+ej85QHUcyH2GUBi57vT4bGM7b8sbwGQBOgADqTzmnAKJMzRaoVlt0rDh4TbW8LH9lJgM5jwe2bIpsPpKZf3njF7Wef5LzYbJ7dhgBvejWtLLXt+reureS2f5Te2X/AKAGAqhr1Xsw6br04+FmvBxvJC+NBRC278r42yH1ciStZ3lVFXfwFvcJWprhHsJMi5sWt3QdsYN7mtrPn9VEusPOgcapOvHxVRK1xnl0ZAJwQQigrpZuwZnIIJU6MWMiNdwXpnXfFy8cyr8zrJ17H3bsJ3P8tkP9RvNVnNbM9w07pqi1bdIdymPjLVHncHwlTH89T/qbj3ICwNliHCjUlgxYuSs4M2MwiUziTu7nxOxbIINJjf5fHN+eoqdFx/19x7+K3s84UACOjRYo1Ja09GR6d0/lPWlNUZWcHoNpI312Duy+Oac2Ob4m1B/FviW3XZHgbJvXAFwrAig0QHeI1unCt9TTUD25l0ebPuyYSnJ+bk0EulUl3jfn1CbHV99U/g2762E09tT7WKeqL60zPoDLRQoPAADAES1QAAAAjgigAAAAHBFAAQAAOCKAAgw94CRTgvw16Sln3AcbzU03tDHHkH79nAcwBVAHARRObCnvd/tUXg6W73KXqug2n9TS++DLbPSZnZTWPMVm595L/6yl15mqOE2FXDCi+K7Xttq1/atxhPNfJplmpniMKz3W2eY+rqcbMtPVbOjJy2gmPkEUcJUIoHDRyoMSVUE/DkVG88K52ArHIrLz6a15Es82Mv0XrzM1fIMKqh4beCw/sWP7l8I5aLwyredPGXnZKZUAXAcCKJyYnVT3YCN46wmUd0wTYoIeFQt9FgU9NmjZCGbyokCtO2n6OKpu/1Id+vw3o/ex7z6q4/sciZcZIw3ANSCAwp6i1MvTNNsPJH2jbVof9C9s+kkv6fSZeT15bz7NsW396z5K8Xs7w1AkjOe7y/5NFcvvsYReX7bGV2ai358orZf+Wek9DNRmO2p7Uerv/vvRzLWXH2sySv1Ei9lXFzu2X1dUfvkyj8o6fY7S+59vSdp1fqucn93n38qlX/P7sGv/tMzraqneEBSnFtPLnqm41r30vVDG3/m90+z1/Ydb6YBLRQCFWgLfTJBmUmPzkaf+natk9AjRb22Z6/TZfCQyfEwq0Nbzj3nfansHEiPw36Q9j9Y/GYTq7VFFE79Xb1NPU2LWbxYbZCSVui+BqPd1tleCy0UoXv/ePeXW+7DbW8nP/XeUustFT7ry9iXuX2P39Uy0nl9lkJ9gePqlfjOQVxul5fdfT3bcyVf0Bee39Pwopedfn8OObtWL36uWVHq0bP90gGbmaIzfq5bqg6nHLWN22XGNlmvJfd+TcJEpOQAXjgAKtaQnqI0q5Zn8ZuqJwbpPUOtWuiqYcalHBpNsq09lSYAzUXvgycgGYdk0zFJ+Z/bHvRWk7pbv8hao7bpNQHdEuoOzCnhTEdT0Kz3f3VS+cvvfexmJF44l25BS7/zuEu3PZqtepOL+bezvCc1+s8GnYTuiN9VvDsDREEChYbkKNDMBbVRZVG8FOH+mA3p3Ii+/63TUOk3UldszrhVb933xgi/bIpcLSJa/KhROt9yppTNUv8k52PmNgtvBQ8HKKuyfbuEyjWLx35AmA9AgAig0x1Rql/ek2N7ip+4+RKKH8qJUT/AWV9T51rgzY/rm2DSeTt9t9AVLt9zFS3P9sKqY7SzA8v1L0oSruYxkKJ3qnaCa172llQm4IgRQaIx+tD8cvB61gm3ddmukaWzflPH3Hi0TJU/d2XRW0nF4+uTeibySuJP9Ph2cW/L8qgI+FUHpdNngNZVGsh2fh//qBRz7nx97blJ95jKc968leldOYynf41C8rXcWdc4fgFMigEItgW/TI2oxHXor529STzn5gfp3IL5Zj+No4L2PqHN5kspxe79JY4VDcY0Tpk+d1FN3uj+RTRX5MzskQk8+ovxRtF+6o3WtjshFWtI2fdNzHcKr6j3IIPDFDwaSzZbpTtRzGc18W652cU2DFZ6f8vO/kYLLbL98//JP4JkO5afIHy+/ZVw4lEbN8wfgZP63Wq3+sz8DDnQF2JHF6+X3aTJPc+nK9UI78uqnzTomhXjc9No1MGW3eC0P/PUTgeaB0+0tjskTgRvriT4n4/58YwDXhFl3kHkgA8D5owUKf17v4wz6x+wtSg9J0VhW2NNU3pOmTBUEvaWfUKyucJT7hF23N5KzfWATwFYEUIBJB6WmZLkUZqyrKJXIY/A16LGsTJov3Q+pJ/fyaH+vylgFQZvpv/UgryYLuWEq/3ZN7ROfP71uzh9wcUjhAQAAOKIFCgAAwBEBFAAAgCMCKAAAAEcEUBdsPZs9g/ABAHBMdCK/AsVj0AAAgEOgBeoK9B4GBTO9AwCAQyCAAgAAcEQABQAA4IgA6hq02uLtNeM9AADYBwHUNWg9y8/qU+SRJ/IAADgGAqhrsHyXu5tHkc+VrApmiwcAAM0hgLoGy4WEzMYPAMDREEABAAA4IoACAABwRAAFAADgiADqCky/ApHurdAFCgCA4yCAumDxZMJ+MJAJ8+ABAHA0TCYMAADgiBYoAAAARwRQAAAAjgigAAAAHBFAAQAAOCKAAgAAcEQABQAA4IgACgAAwBEBFAAAgCMCKAAAAEcEUAAAAI4IoAAAABwRQAEAADgigAIAAHBEAAUAAOCIAAoAAMARARQAAIAjAigAAABHBFAAAACOCKAAAAAcEUABAAA4IoACAABwRAAFAADgiAAKqGH6dCM3N3a5e5el/T0A4LoRQF245fvdn664T3n8OnjyZyOZr1ayWs1lJEPpPE3tqwCAa0YABexlKl+BJ6PPZ2mZf7fk+XUgErzJO81QAHD1CKAulGl5ubmRzjAUCYfSidNIN3eZCrwwxTR9kpunafL603Qp73fp90f/fppO5SlZt/63eXd1y3e5S70/21oUbzNenlRYkpXZf7XE2696/Acz/ZJAunIbRU+KOpa3QP0/lEVm+7b8SO8BwFUhgLpQrecfWa1WMh95Il6cRtLLjzzbSt2kmGRif7+SSVcFGumKPPDlrT036wj8jixe5zLyQhl/r6v6wPdFJtH7o7/bDHIK6SCtM5Sufb9ZfuIWGx08dWTYXe/ffDQTPxVE6SBpnSKLlo9e9FqV498tGximl8pBoteOjsUEiXH5mVcAAFeOAOpq2RTTi404lN7LSLxwLOv4aCCvcbShgpDUnyYGKvhZBy2v6h0z+a3YlDL9CvQKkvdnLL9lHA5kknoxWn8gX+kAJrO/TerJRxJ0ZZet+1vAtIR1xtKfF73PbicJHAEA14AA6lotf1WoE8qwk2pd6QzVb+rKp6iKLOV3puKnh4JoZLnYsi8taadacHQr03wk62NoNA3WQAtUOBR/3Jd50uq1lEX9AgYAXAACqKvmyWieb2GpmuLawgRlnrQd3j+r2lxlbAYgcaqu+afcarZAtdqqJFSA+JpqWTLlM5CimBEAcD0IoC5c67a7Pc3Vupe+F8rwX1MBh8j031DCwWvFAKwl931PwuHj9k7dvQeTrvNTAdH0yZegIJWo16cPNa/w+A+t9SzRQ3dxq9hS3h91+Tyo0Cwtbuly6DsGADh7BFCXrvchk0E6VRc/hdaS55+5jGZ+kpoyi2MaLPDX7zUd0h06CG2k4DLb1y1AExkE6/0zHcZTfYXyT+CZ1/PbLzz+w+t92FYxs13bIX6jfOK0ZK5vFwDgov1vtVr9Z38GUqKn5Bavbp2qsYV+GtEPMh3yAQCXjRYo4KDs+FCFqUkAwCUigMIeip9gi5fG+npfMt3ypFN7kk1NAgAuHyk8AAAAR7RAAQAAOCKAAgAAcEQABQAA4IgACg3RHcuPNwYTUJ++ZpsY4HT9UMUdHwDgzyCAugbLd7lLPQF3/C9xPWaUL7PRZ2qUcv2701comcE4G51L7zyO7/Sicmh+pPVjlG9PXkYz8WvuuxlBfzAx0wD97D1PEoBLQwB18VRF8zgUGc2TudyO/SW+fH80j+p/nlnloYMnM3q5KZem59JDNEzDo0h/YH9xeVrPnzLyslMKuSmZNBvA1SKAunh6Al5P+vcnCl6W72Lit89zG+doKl+Bl9qvljxHk9edbZpRB3yX06I1lSdfZKInp761v7pI6rr4HIl3xtcFgPNEAHXV4vRKvGRTFcv3O7nRd96mJSH6G9cKfPk9ltDrS3n8Fu/LkfpJTb8kkK7cJvultq9HBJdQFpnt2/4rtdN7dY4v2gfdWla9FS/a3tN03f/mmPMARnMZfuQmTt7m8OWbXMcFyl6PJ94eH31GagCXjADqUiVBj68ChfRkunGQpCscO8GtTe3Nt/X30JP5vrWjNJeZ+ffRqRJeLkLx+vclrU92X/SI3LrFolKMkA4MskvlbIvXjvbL9BHT8/rNZWQm9m3aPsdnmX3T/cfmstpjtPLAf5P2PDq/ZlLlxyb7eZ2LGuVbSUvu+56E2ci6oqgFuN34PgE4dwRQl6r3YQOjiQzEk5GtRFdxq8DyW8bhQCap2Wtbz6/qbwP5ygQg6m/iirt1K92NFppdov4fu6UCOacAQbdwxMeUXVwm5DWtD52x9FX5bH+f3c7eU63se3zxvg2lO9m/39pgsg4oeg/n2BfpdOXrbPartlZVHOB/ycNBgjoA544A6lotFyoUymtJO98CM3hIpWGiys4lQCkTDn0Zqh1x72TbQAtUOBR/3E+1WujWAvNKY/Y/vqV8jxveGWebZVy5bI+kqHxN8Gn3uaP/QLek2n/rNHTZ6/XZwHDeljeG7wD+JAKoP6X5AKKMp1NTk4Gqv1wrmZotUK226Fhx8JpqtVj+ykwG0uQDU/sfX0uef9TxzEcy80/VeXyzjJsMnptQVL6t559kn9XL6kSvU9W6Na/s9a26t+4tXLb/1F7ZPwAXjQDqWvUeTLou/Xi2Ga/GG8lLY5Wk7Tsy/t6d+uh9iOle1TninXrrWaKH7uI+QUsz3EOYaXHT4laYGmMB1Tk+tZ8/q4l0h52Gx6k6Fycu30qi1kCPjkwAHBBAXS3dujCRQSp1YcZEargfSeu+L144lH8ltaNuETCdnDvHSxP1PuzYT+b4bT+ajSaWOK2Z7xvmpt7xRS1Bk+5QHk/SErUP3Tcpuq5ufP10owrWTTnng5xzKN8Spr/gCYcCAXCR/rdarf6zPwN7SQasPHQn30PRTzSqIGAwOb8U1lU46/KNOqmP+/M9O/JH71+8cu0Afw0tUKgtaek5tx7IlagKUI8P1WhqE2vnXb71R9FvyW1XJKjTvAbgItEChYbovi56TKILeqTbtozoyv1iW8/O2dmXr75m9TAEVQYE3UWvR4/HFnV6P/ZUSgBOgwAKAADAESk8AAAARwRQAAAAjgigAAAAHBFAAcCe0lPG1Bos9ErVK594EFa7bDzlW/Y656fMZZdP/eujLgIoAH9YPCBojcojmSam7tN8h9DA8dW1tXyi/do9hdF6qiEzHc+Gstctzs9ue5+fY9hVPg1dHzUQQKEWcwdzlVOQVMPxn/b4Kf+/ffznjvNTgx4G5eZRpH+g6KcBBFAA/jA7qfNZtk404dqP79JxfrabypMvMln9yPOt/dUZIoDCXsyd1c2NdIahSBjPN6eX7FxoepqXJAedvhPTdxdP0+T1p2ncVBu/P/r30zSbx3ZOYy/f5S71/uzdYLzNeNlsJs7sv1ri7Vc9/irMug6QnzfO9fhLz38ku/31/lXZflKu5k42ej2dkojXES25Y4/LLX1e7HqqpDWidefLM7qW0+/PHF+upWLX/lc+/uT3m+fW2Hl97N4/rej6cLf9/B8K58fV/ucnKScnOv12jKDS1i9byq4KAijsRU/uqnPL85EXjTRtc80rfcdgB2LWH15f4vx6NFluJ32hBr68tedmHYGv5xOby8gLZfy9vpQD39yGJNsK/IIvmm30F1tnKF37frMkI2LrLwQ7wbB9bT6aiZ/6ItMffDPHX/xetcTznVU5/nqygeNeX4Lnfvwl519v/+thve3JIBDfXj+Vt68n035rR6/PRyLDx6QCiNex2tZBovUsP+rvPfX+qLzV+fCDyiONt55fZZCfQHn6pX4zkFf7/tLPh1aw/1WOf+fxaTuvj/L923V9uLHXouh1NfX52Y3z4+L45+dSEEDhQKbyFXgySk2A1ntRFVI4lnV8tP6y0l8y2+ZKS09AG33pzeQ38w1WbPoVmA6SW780zAz8A5mkXtz6pZrZ32Nad4DML1W/BM//+Heff13BpPe997BPXwh1jHGl07qVroSyqHo8Koj61MHd27u8P/kSqLKsPk1LT170e1OFGZ2PB3tXXeXzodXY/xI7r4+q+1f7+kgF8qng4PA4P9Wc6vwci/2e3fPYCKBwGMtfFeqEMuykWk/U3VRoX95f1S+opfzO9Pfh1m8f9fJiy760pK1uGGO6Ajc3lfEx5O8+a9B3h3G5mGZ+fSdr/x2lAeq2QJ338VeST1/oefVcJRWiFn1Zbq+Qtms9f5qJsodBNtisonXfFy/4UmdSy1V4VT8fNfe/WNn1Ub5/TVwf4dAXffkX7scBcX7K7Xt+yr/frgMBFA5IfSHN8y0oNZqAzZeGJ22H98+qNlcZS1nkviH1l1C033NTkXb270SQsV6vTk2pX6g7zfjfUStH/RYo7VyPv5wKIFWFoC6g9bEf6lnkHZbvj+buO50+rKx1L33Ptujp9JDXl/vMtdvw52MPu6+P8v2re33olKg+r4F/nL5PGZyfUvuen/Lvt+tAAIVaWrfd7c3E5stJ3SH9a67Cnf5Td1iD14pfYC2573vqDmrd5yWj92DSVX7qC2Wq0zQFqUS9Pn2oeYXHf3LXdvxRH6S8g25/+qTunrum5an3MZFBOJRHp1q+Jc+vqpRVDa3TMYPXVJqgoc/H/sdfcn0479/266OS3odtKTl2EMX5qeRk5+cY4pZ+h761KQRQqEd9uCYD9UFOmpLjD5l+PFfd9czWTbdmcbyLD/z1e02HSYfmF30XlGnCzmxft/CoSjHVtGw6XKZy4bqTZvK++PX89guP//Qu+/ijPirhsGPX+ybt0ZYWqL23r/t22PeYwEwFk+n36w68ptP4i9oTbb0/TjfxOlBVZewHA8lmQZr5fBQff8nxKbuvj/L9q3R9VKT3JT4Ox0aSejg/lRz//JSXTzPibgu5vp8V/W+1Wv1nfwbOSNR5cfHaVJ8CoHm6r0dn8eoU2P8lTZVP8sRZwXqKXuf87HYt5bPv9WHYm6X0A0tV0QIFAAD+IHWj/hbozl4FXRd2I4DCBSp+Qi1ejpoGQM4fOz9JGnS/fhRXb+/yWV9HJouzoex1i/Oz28WWT83rQ7c83djxrfYcxoAUHgAAgCNaoAAAABwRQAEAADgigAIAAHBEAHXB1sPl0zkSAIBjohP5FSgbAwMAADSLFqgrYGapn/0mI9ACAIDDIoACAABwRAAFAADgiADqGrTa4h1lRnwAAKARQF2D1rP8rD5FHnkiDwCAYyCAugbLd7m7eRT5XMlq9SE8iwcAwGERQF2D5UJCry/3+8yGCAAAnBFAAQAAOCKAAgAAcEQABQAA4IgA6gpMvwKR7q3QBQoAgOMggLpg8WTCfjCQCfPgAQBwNEwmDAAA4IgWKAAAAEcEUAAAAI4IoAAAABwRQAG4WPGDFNHCPJB5l10+U3lK9l0tT/m9L3ud6+OylZ/fUyOAAnBCS3m/q1m5DSayWp3rPJANHF9dF1s+Pfkw+72SycD+KqPsdeusjx/FKp7fEyKAunDmDuvuXX0N/U0c/2mPn/L/28dfy/RJBU6PIv0zrR1R6q9f/wRQAE6oJc8/19w6cO3Ht6+pPPkik9WPPN/aXwEXhgDqQpnI/+ZGOsNQJBxKJ8kV38l76nZg+hT/Xi3pOwV99/c0TV5/msZN6fH7o38/TbN5aOc09PJd7lLvz96txNuMl81m/Mz+qyXeftXjr8Ks61D59XM9/tLzH8luf71/VbaflKtpaYhev0utPF5HtOSOPS639Hmx60mvo0i07nx5Rtdy+v2Z48vdSe/a/8rHn/x+89waO6+P3funFV0f5bZ9vt0/O/vT6ZnTB5W7y2/X5zMuP/tPTV8nqXO06/pJ1Dz/Rc7h+tcK11/z871mr1+HsmkSAdSFaj3/mNzwfOSJeCOZ21zxSt/R2Tld9MXrS5z/X8mkqy709IUW+PLWnpt1BH5HFq9zGXmhjL/Xl2Lgm9vEZFuBX1ARbKM/EJ2hdO37zfLzbKec0V9AHRl21/s3H83ET33o9YfUn6WPbSXxgOtVjr+ebOCYXrJfsjuc+/GXnH+9/a+H9bYng0B8e/1U3r7axs1bO3p9PhIZPiZfsPE6Vts6OLSe5Uf9vafeH5W3Oh9+oDY1l58KB9h6fpWBBPKVPlfTL/Wbgbza95d+PrSC/a9y/DuPT9t5fZTv367ro6rAf5P23K5/EKrDO01FdAq7y6/881nJjuu/7vnf5Ryu/53rr/n5PhcEUFdrKl+BJ6OX9Tdq70VdsOFY1vHR+sOkPwSpP00M1Id7XWnrD+VMfqt8ghUzR99gsv1Lffkt4zA7Bc3WD31mf49p3YExv1StpM7/+Heff/0lmd733sM+fVXUMcaVQutWuhLKourxqC/ZTx3cvb3L+5MvgSrL6l+uPXnR700VZnQ+HmyrR5XPh1Zj/0vsvD6q7l/N62MwWVd4+53fC1dUflU/n6WKr59Gzn+hU1//FdZf6/Mds9/TqcDzmAigrtXyV4U66o6yk2o9UXc7oX15f1U/QEv5nenP69ZvB/XyYsu+tKStbmhiugI3Nz3xMVS8+6pC333G5WKaodWdUPzvqAm5bgvUeR9/Jfn0grpDdJZ8YWvRl932CmO71vOnjGQowz3me2zd99Ud7pc6k1ruC73q56Pm/hcruz7K9+/k18eWz0jl1tkzsLP8Knw+Kym8fuqf/zInvf4rrr/O5/scEEBdNfWBsc3z68UhxZNnPhSetB3eP6vaXGUsZZH7hOkvuWi/5+aD1mnoG3q9Xp26UL9Qdz/xv6O7IHtns2Vx+Zyf6/GXU5Wj+sJTF9D62E/wLPHy/dGkUdLpw8pa99L3bIuBTl94fbnPXLsNfz72sPv6KN+/010f2uZn5NLqQLfy2/x81lX3/O908uu/fP21Pt9ngADqwrVuu9uboc2HR90B/GvuC3X6T91BDF4rfsBact/3JEzn/NN6D6Y53E99YU11M25BKlGvTx9qXuHxn9y1HX/URyHvoNufPkln2DV3pr2PiQzCoTxuLcwiLXl+VaWsahCdvhi8ppr5G/p87H/8JdeH8/5tvz5QVa78Kn4+kxSZbq11aqFt+vxvc8Lrv8r6a3++tbgV1LFvWkMIoC5d7yPq/Jk0lcZPQejHp9Vd1WydmjKLY5Qf+Ov3mg6BDreY+u4u00Se2b6+e1UfmlTqzHToTOWydSfE5H3x6/ntFx7/6V328Ud9KMJhx673TdqjLS1Qe28/9YSTqXhUZZV+v+5gazqVvqg90db749TIoitCVcZ+MJBstqSZz0fx8Zccn7L7+ijfv0rXx9kqL59D211+ZZ9PdX4+R6YTtHm9s5BXxxbauue/kpNd/yXrb+rzrbYTpVVd+6Y143+r1eo/+zOQEj2Fsni9vGZ5/B26L1tn8eoU2P8l11I+yRNdBcdR9DrXx3XYef5tMJZ+4OlYaIECAAAXSN3ovwVS9BT5oRFAYQ/FT6jFi1szLJr1x85PkmY5TT+Is3ex5bO+jk2Wb0PZ69bVXR9/5fNdcn51y9NNR4aS7fpwTKTwAAAAHNECBQAA4IgACgAAwBEBFAAAgCMCKJwJ3WHweGPAAKenr3k6vgOXigDqz4sHtDvgF3luTrVorrk0vQ++zEaf2VHOzVMW9omS9M/XIF0mqYMyc/QVDGaXf80MBFinQK65fC+CHjxwjxn+AZwFAijUsqvCj6jg6DE7p1p+xm0zH5KM5DM/R0yrLdm5O93m4TtnelqcqEz0aMdvUcubCqoe9dQGFR/JNbObJ5OF7uEI5Vt+fVy3suM3k6l62SlDAFwGAqg/Tw+5rwObDzukftP0BJye9LOzWK6ZoEHFEp9FQYOt1Dcq+2sTBZrdicN5MPNNBfJWK+/5V8r3XMVTgtggGsDFIIC6WFHq7WmaHVQtfSNr7n71L2x6Ri/p9Jl5PXlvPo2wbf3rPkrxezvDUCQcSmfL31Sx/B5LuDFLuNV6lp949u70zyn5+azWxx/vv/2npsshbg3QP6sX4/c/TaO/P9ZcXL2HgZ1nLkpd3n9Hs5LnpyJIH58p6wxV+b6q9Yy/o2PK2H3+jArlu6+q10fm/KVbakrPz7bjy53vKnLp5WxrUbzNeNlMtRVdf06fDzvx6njrjMT2+P5wKx5wrgigLlzg+yKTKDU2H3nq37kveT0K71tb5jp9ZmauXM/+rSezNGm1HZNgBv6btOfR+s2kkY/RF3n8Xr1NPYy+Wb9ZbCWcBG2+BJKebDK7f8tFKF7/vlLKKk9XUmaCz2TbjnMhqbJ5a89tuel5/+YyKqzI8rIVd3qpVIn3PpJ9/rn/jlJ3uZ3XlbOZ/8n+nSnrvN6LjGQoRZOeF52/Qyu9PpT88U26KtBIBwoVzk/p9b+LvkY7utUv3je1JOlTHTx1TFAbvzbP9Vfadf1VOf41OzP/4hhnBkBTCKAuXHoCxdbzqwxkJr+Z7+HBuk9N61a6Kphx+Z4eTNZf+LrVpLIkQJioPfBkZCvxbKpwKb8z++O+wrFUine2GshrfHDOcynp2drjY8ouTkGcrqi3pe6W7/IWqHIr3amo8g0KpiLf+/wd3FS+csdn+nRlzmf5+Sm//otNvwK9gu3na/kt41B9dlIvRuvPzfpe6/rLmf1uCW7tdXaiqSoAFCOAujq5AGnwkKqYoy9jtwr+fOm7fNOoFrduHTXNUbMFyjId6LsTefldp1PX7+/KbYVa01Tsl9aHZvmrQp10y6RaOkP1m7qq3iBEwfvgoeDDsFxs2ZeWtFONgKe9/gCcGgHUNTGV0vU8qVZFnCpZreYmldVx7gSzrwZaoOKn7j5Eoofy1PsnAwne4oq4amtKTx4GVVOP5yTdMhkv21JcFe1x/c+qNlcZ+oEI+6PV6PXXvaWVCbggBFBXRD8aHw5e96+A9tC67dZIY9i+H1s7Qbtqid6VvCS1pTsL75yy/dgKUncxm25NgqLp05ZO5Gs6/SXDf9X7/1QWt7Q59C1KKbw+bMfpYVHnrT24Xf/22kv1CczoPZh0XXp4gemTL0Fhqnf79Vft87GU73Eo3tbIr175AzgcAqgLF/g2faAW0yG3evPH+gkjE1ioysKsx/EptN5H1Dk5ScW4vb913xcvLO4EvUv+CSjToTc5/vjxcD96vbOQ1x2d5Y9t+hR1UI52Vw+oaFNB/swO6dCTjyg/FO2/fhBg1/7bIQ0KukLVEKet9lx34fWhh8+Yy2hmz0+8OKbB9r/+1R7kU3CZ7esWRj1G13r/zPWV6ou0+/qzqnw+TH+roqE+apY/gIP532q1+s/+jIsSPSW0eL38Pk3maaxc5YQ96KfKdKDVcDnqp806JsVYI73WuGu5/qPjGPfnGwPMJvR5VTc56Q7zAE6PFiicXO/j2P2XrpROO+3ZmlcsSi9J0VhdqKVwFP6ECrDegj2eEgVwaARQOAM6nZOa0gR7avgpSzOWlx0L6aJaB4ufkIyX84jVp/Jv19Q9cfmrAIvWWeD8kMIDAABwRAsUAACAIwIoAAAARwRQAAAAjgigAAAAHBFAAQAAOCKAAgAAcEQABQAA4IgACgAAwBEBFAAAgCMCKAAAAEcEUAAAAI4IoAAAABwRQAEAADgigAIAAHBEAAUAAOCIAAoAAMARARQAAIAjAigAAABHBFAAAACOCKAAAAAcEUABAAA4IoBCRVN5urmT96X9J/Dn6c/Ek/pvXXo9N3Kjljs+YMDFIIC6eEt5v9Nfvju+yJfvcme/oPf7ktbb8GU2+pTnlv0V/ogK19ef1ZOX0Uz8mmUzffIlGExktVrJDx8w4GIQQF09VQE+DkVGc/MFvc+X9PL9UYYyks8t71u+38nN3bvayt906cf/189fmbLyaT1/ysgLxH/aN4Rayu9MZPDQs/8GcCkIoC5eS55/dGD0oe6Ht1nKIvSkf7/nne3yXUz89fmstoRDmj6dYwqn7Pr661T5fI7EC95IbwN/DAHUBTN3x0lq7jApluX3WEKvL/n4K952ZxiKhEPpJPuR7Selg4JkH9N38tMnuVF37fHrT9M4VRS/P/r303TdPyT6O/Pu6nLpy2xrQrzNeNksw8z+qyXeftXjryY6Rn+2vZWv2K79311+VfZ/5/VV+fyZv47o98TlX/r+is7h/Lbupe+FMv522XEAl44A6oK1nn+itNxkYH+Toiso84XvSyChDDtxBeAWaC0XoXj9+43Wp3jb85En4o1kbtODq9VP0k9KV06+RH079DLpqoooXcEFvry152Ydgd+RxetcRrmKKPB9kUn0/ujvHPZfl0FnKF37frP8xC1punLtyLC73r95rj+LrkR1ULM+tpV82GaYKsdfiQkAdP+yeWrfqijff62o/Krs/87rS6tw/naq+/6zOb8tue97Ei72CaCiFuK2yzUD4CwQQF2r3of9wp/IQDwZzeMKwCUVE/XP2M9UvgK13Zf11novI/HCsazrx4G8xrWRqqRSf5oYqMpxXam9qnfM5Ldq/foV6BUk789Yfss4HMgk9WK0/kC+0hFIZn+bZVo5bADg3Hm44v7XKb9y5edvt3rvP7vzO/tVn5iq4pbBL3lwDboBnAUCKBzG8ldV1emWL7WoYCG0L+8vlGo3+iWdc5eLLfvSkrZnf1R0K8R8JOtjyKSH6lrK97hGaVTY/+2qlt+5O/fzW6YnH/qGZt6Wt73SvgBOjQAKB5Ru+YqXGnfbJihzS3fMnJpbdDrF/mglaazVXEYylE6mU08dtnO2qsFnflOdxzf3P2OP8jt3Z3V+u7fqrDqy/aeuI6gF/hYCKOxg+3aMvwvvzFu33e1pEFsxDP81FXCITP8NJRy8VgzA7L4PH7ff3fceTDon/fi5GY+nMJXUEn2oeYXHX1XrWX5WE+kOO24tIM77v738au9/iSDOl+m+Xn4Q/dyIczq/UWuiR0cm4E8hgLpYqSeMTMWkKguTKms2HdC674sXDqUwDup9yGSQTtXF29ctLOqufubb39vFMU0S+Ov3mg7pWzu8bLeRoslsX6dQJjII1vtnOhSnOnLnn9Ayr+e3X3j8LqJ0ju5k/1j5zeX7r5WWX+H+172+4sf77f51FvJa1Bl9T2dzfk1/qxpDhQC4SP9brVb/2Z+BrczTdFsq58OKnqJavK47QcMF5XccUTmP+/M9RxHnPAGXihYolOp9NN3/B7gOu0bpryZKHSapTgAXgwAKFeh0nE6HnMtoy9nBIbctxHqX7FLO71T+Dbsyqdky2/tYpxqZTBi4HKTwAAAAHNECBQAA4IgACgAAwBEBFAAAgCMCKAAAAEcEUDhz8YCO61n0AQA4NQIonNTy/e7Ik7hellOXz18/P1yfAIoQQOHM2Ul3Vx/CQM0AgHNBAIUa4vRavKTTbNFrT9PsoIjxAIjmzl79uzMMRcKhdJK/Wc81Fv9NtORSeNMnuVEri+cze5rG+5Kdyy0z4KJ+T9yaUPr+ivQkuck+qiXTWrGrfCL5+dhcyueQqm4/s//pY698frZfH5WdvPzt/tNKBfw5BFDYk66cOjLsTmS10i1EK5mPZuLnKqnA90Um8eue+nf0up4INv6deCOZ23WsVj8Sz4oR/82qaBLawJe39tyuV88nNpeRF8p499T5a3Xfr4OEzlC69vjMkoxKXV4+upI2cwzG71VLPB9alfLZrXg07ypBSpXt6+DDTFBsX9OTIXfSgUSF8i26Pio56/IHcO0IoLAfMwP9QCapGVBbz68ykEDS03oNVOW2rpT06zP5bexWfSCvcW2mKrkX5xxfvfdPvwJ9gNsnga1YPhKOpWq85qYnH0mln1227q+zqXwFnoxShdZ7GYmXOZ7y8q1zfZxH+dtyPupE2wDOAQEU9rNcSGh/XGtJW92w7xbK4iABw7Et5Xem6u+HbbW3UqF8dCvHfCQy7NjWoUbTQPVaoEotf1WoE673XS+d4ZZjdlX1+jj38gdw7Qig0KClLHbVoKbS9aR9RbfqM6fmtM3yiVNFq9VcRjKUTiPRjXboFijNk9E8v/4aKa49ro/zLX8A144ACvvpPZh0iJ+qcKZPvgQ7UmHTf0MJB6+ZCrZ12z1gGkskiPM1urOxH0Q/N6Il931PwuHj9k7dzuXTEl0UeYcunzKF22/dS98LZfivuYBj2/VR7FzKP27pc+i7BeAqEEBhT7qFYyKDwE9SOKZDbq4vSODb9Ih+XXc4zjd/9D5kMkingrJPaZnfmcBHVYaZ18u05PlzJF68f52FvBZ1Rt/TRgpIL0kaqLx88k+Amdcrl8+RFG5fDy8xl9FsfXxmcUyDlV4fO5xH+cdpwVzfKgBX73+r1eo/+zPQoOgpqMVrkykjXI8ruj7004AqyE93iAdw/WiBAoC9qUDwLdjzKVAAl4wACthQ/ARbvNDX+JAupPx1y9NNR4aymboGcP1I4QEAADiiBQoAAMARARQAAIAjAigAAABHBFAXLJ4xnkH8AAA4LjqRX4FkVnwGoQEA4ChogboCvYeBnhTMaQRoAACwPwIoAAAARwRQAAAAjgigrkGrLd4JZ+wHAOCvIYC6Bq1n+Vl9ijzyRB4AAMdAAHUNlu9yd/Mo8rmS1epDeBYPAIDDIoC6BsuFhF5f7pnNFACAoyCAAgAAcEQABQAA4IgACgAAwBEB1BWYfgUi3VuhCxQAAMdBAHXB4smE/WAgE+bBAwDgaJhMGAAAwBEtUAAAAI4IoAAAABwRQAEAADgigKoh7sTN/HMAAPwtdCJvwPTpRnyZyIon4QAA+BNogWpA72EgMvuVpf03AAC4bgRQAAAAjgigAAAAHBFANaHVFi8cyzc5PAAA/gQCqCa0nuVn9SnyyBN5AAD8BQRQTVi+y93No8jnSlarD+FZPAAArhsBVBOWCwm9vty37L8BAMBVI4ACAABwRAAFAADgiAAKAADAEQFUA6ZfgUj3VugCBQDA30AAVUM8mbAfDGTCPHgAAPwZTCYMAADgiBYoAAAARwRQAAAAjgigAAAAHF10ABV34r7++eem8mSO80bu3pmxGACAU7uKTuTTpxvxZSKrhp+E0wFaZxjafw1kcqJ57g51fAAAYD9XkcLrPQxEZr/SdNtM6/lHVIApq4la/8ks5XemwrcHgicAAM4FfaAAAAAc/fkASqfHon5Uarl7d27FyrxfLU+5zlh11w8AAM7PdQRQrbZ44Vi+HaOTpG+RTtOpZdIdSschyNF9pPzZSOb2/XpJd1Oqu/7IUhahJ23miQEA4GxcSQD1LD+rT5FH3dJT9Ym8qXwFnoxe1hFP72XkHogV/n3d9cdP3n3Jw+pHngmgAAA4G9cRQC3f5e7mUeRTt/RUfFJu+SszCWXYSaXYOkP1m+p0J/P5SNbrSLcu1V5/Tz50y9W8LW83d8LoBQAAnI8rCaAWEnp9uXdupfFkNF+n36LFrbUneVJvNZeRDKWT6QRVf/3Supe+F8qCAAoAgLPxdzuR28Bk+K+pIThbctu1P2qNrx8AAJyLvxtAqYDn+Wcuo5m/TrFl0nBLeb+zv/MD9e9AfPM363Ra/gk806E86UVetn4AAHCprmIkchXJyM1bW+Y/zypsuTY6kOvI4jX7hB8AADidq2iBmn4FIt3bKwyetCg1GHyRCgQA4FxcdAAVTybsBwOZXHHzTO9jIoMgSgUymTAAAKd3HSk8AACAI/rDncgBAAD2QwAFAADgiAAKAADAEQHU1dBz5zHlCy6Jvmarzl25SzxvJA9ZADgeAqgmmLn41oNlHv9LXI8V5cts9Fk4TUw06GcTlZWreEDS+ts2T12e6UCkpyvf4zjM8fXkZTQTv+Z6p0++BIOJmSrph1m3ARwJAVRtKkB4HIqM5sl8d8f+El++P8pQRvJJ5YEL03r+lJEXiJ+ZQ9LFUn5nIoMHRpkFcFwEULUtZRF60nefybgZy3cx8dvn7lHYex86uPtQ9/zHpqe0OdW2j6eJ8tWtPOeagjrc9aOuj8+ReMEb6WcAF4UA6qBS8+mZJZuqMCkpfeetp6LZM/23/B5L6PVlM37Lb3tz+4cWD3S6fdvR/j1N1/1X0vMMxtLzDXaGof3tWvr1THovTqumWzZsOWfL2G7fOTXYZPlG+6DnUqzeilit/I5xfMl1XKDs9Xji7fG32x4CwCkRQO0rCXp8CSSUYSdfyegKqCPDbtQ3Qy/zbf099Ajjeh4//Tfzkcjw0elOfLkIxevfb2l9ilt+7DIZ2N9Xla6Ys0vVbEvr+ad024H/Ju15tI+TgSrHx3VFr4MjX9Ll59lXIvnXJ92hdOJAofUsP6o8PVW+0f6q4/ED8UbzhlKsdcvXMoGe7r82l9UecznuKr96Gjq+Slpy3/ckXOyz51ELcLuJUwoADgig9tX7sJXLRAbiychWYkmaY/kt4zA7xUzr+VX9bSDZae3U38QVZ+tWuioYq16PRP0/DqMnH3HlmVuanDVnMPlJOr73HlKVtAos3gJVri9FG5vKV+713osKmMKxJA0ZKoj6VEFX8PYu77aj8WbwZI/zBBNRm5aZzlC6k/37zRWWX+J0x+ds9usQ/MUB/pc8rNZlAADHQgB1KMuFCoXyWtLONqLo3q+pfiVRZXce0/rVb4Gqryu3RRXj8ldmmZY/tahgJF/mppOyDGV4dvMlLuV7vHmFXIp0etakVu1cjXrRKdKy1+uzgeG8LW8M3wHgBAigjkqnG+yPZ+84LVC7zeR3Z8WYbvmLl2xrhHlCsTuRySAQ/6yGQLApsvlIZv75dh4vkqRn1WKye3YYAb3o1rSy17fq3rq3ktn+U3tl/wCgBgKoQ+k9mHRd+vFsM16NN5LCrJQz23dk/H1GgUFDbDoz6Vg8fcp2IrcV5/DfjuYw856uaXnqfUxkEA7lcSNQiVva9u0AXpPuq7WaSHfYOdAYVyc+vkqi1jiPjkwALggB1MHoFhxVaadSF/opq3nDfVFa933xVGCwK444jdRTXH6g/q2CSVMOVdMtqvxMp3oVWOj36Y72mY7MugVnLqPZunzNEgchupO/6TT+otak6UEbVbCp1pdNQcZp1XzftGOKWvt0J/jNAK+uczi+Eqa/4AmHAgGAPfxvtVr9Z3/GhTJPo5UFZyagEJlc+XhMe7HB1mBSIz15zuV71scXPa067u/7dGT0/sXrufQdBPBX0AJ1BXofc9NRupNpWpnKe9KaoSqZtyDXYR0RWzbOqdVLKd/zPr76o+i35LYrEpxt8xqAa0UAdRV0OkunC9OjOffkXh5taqtjKqk5t+hZulUlLhvn1OoFlO/ZH99U/uk+ajXT2qZ/m02VX1pnfACXixQeAACAI1qgAAAAHBFAAQAAOCKAAgAAcEQAhYboARuZUgNN0tfUOQ8ACuAvI4BCA5byfufLbPR5hpO66n3TT5JdakXc3P6b+enOajqbNT2W2eYx6sFPZ+ITRAE4QwRQqK3+WD77O+egAPWZyaC97JRIAHAOCKBQz/JdHocio89mp6hpjp2092JHYL/0/a+m91F0jOr4P0fiZcY4A4DTI4C6cFHqY71EN+pR2mfboIL5Fpvs+9OpkmgdT9N4Mtr0+teW32MJvb7kpzEz29lIvUTrSu9XZvu5liSzDr1BMyBk9Dfxe6P130QTDIdD6cTrSPXDiv8mWgrSQCoAvEv+Ri25fdi1f9r28m/G7v3fdn42+6Cl9y8zGbNVeHxxuaQPyJ6HZgarjFOT6aXgHNmJo5OJpTPs8W85NwBwSARQF0xXsGYOvJW+e4+WaLDoaHqLcFFQpXRvTWuRfv/Xw/q9k0Egfq4iCnwzAZp5fT7y1L+zldxyEYrXvzfrS2s9v8ogP4Ht9Ev9ZiCvNtWnK29fJuvtd1UglK8I9QjTeiJh/TdmcuFHEyS0nn+SfdLTlKzL4CfphxX/zSozCXGKDgg6Q+na4zNLalTssv0rLv9mlO6/Evhv0p7b/RuEqnjW+5fff1NWKTuPr/UsP6q8PVX+UQylAhUzOfO+c9blxS1rdtlxjPpv7/te8fUMACdAAHXpwrFsuzFvRVPwG6aVwbYkmICnHVWAuoJOV/i9h81KLD0BbRQUzeQ32d5Sfmf2xw26A7AKuFIR1PQrPZ/aVL4CT0apCdp6L6rC3jiewXqqj9atdCWUpurRaH8mBUFPxf0rKP9jGUzWAWPm/C3f5S23/1kVjk8FUZ/6HL69y/uTL4Eqq2aCpz3NfrPBtdGTDx2A1ZwOBgBcEUBdMB0AmUaZjk2BpFpHWroJylQ4qqKcDWQw+1I/RQFP99ZWNfn0la8CilLVA5jWfV+8QG9Xy1XYy18VioXrfddLZ6h+k5OZwDaqLJtp5YnKYvBQsLIK+7er/M9DV+JTvaFi+ZtO3DKUYaAC2Sab1wDgwhFAXbgkzbOam4quE/dZabXFCxeyVBWl9F/koRun0zyJGqCm8qQqTBnNK6ZRFFPpxu+vwPRdsdvV6buNvlIqoLLpp/WyblE5htm6OW2L8v0rLP+zkG4t3Kb8+MwTlt3J1vTu0dnUMwCcAwKoqxH1e0qYdJfI7/dC2ipq0emd4OufLMKiVomoj8su039DCQevqQrW9k0ZfxdUrC15ftXbnZp02eA1lWaxHYOH/+oFHKalba80mt1326dqg/P+5co/EXfyLuggfSg23Zl0vJ4+ZTuRVzk+856uaXnqfUxkEA7lcaOwjnF8S/ker1PPWScqXwB/HgHUBTN9m+L0i1pMh+YkzdKSthfIcNyOWn16DzIIAgm8tg1ioj5K4bBj3/8m7dFmC1Tgp9avOxzn0jgmTacq1sJ62GzXFz8YSDZbpjsRz2U085P1m8W1laP3EXWeTlJR8ZNoqae8TGAYiJ95Xe1BPgWX2X75/u0u/5g+D/r/uQ71pcr3f7eefEQHF61Dd8TPtDCWHJ/uYG86jb/YFOr6esk2su17fA6W3zIOPennH/U0jrB9ANjif6vV6j/7M5CiK/COLF7L+xyZp7l08EBH3q3003pRtvS46cljaeT4TMCmH/jMjwUVXYfj/o6n/2ywl37gAQAOjRYo1Nb7OMf+P+ciSj/JlrGyrsO+xzeV96QpTQVJb/qJyPQDA5HyUe7te72RFD5wCAAHQACFBuh00EQGjBadpVtGbjqmE/ZVPmZf6/h6ci+PNnWo1qGCpM3051T+6T5YReuOt6/fS+sngCMjhQcAAOCIFigAAABHBFAAAACOCKAAAAAcEUABF0EPGFl1DCjgEuhrmgFQcbkIoLCnaKDHqxi5IDcn4N3ZRSm6rH2ZjT7PcByp6DpgJPAizZWPHm/r/OZbLLPr+PXgrDPxuXZwoQigLtxlfqlWd/jjU1/wj9k5AQsHbDyR8rGQDufary8ckBlm4lGkXzzHppms2gvEZww5XCACKPxxS1kUThNyBpbvYuK7z3Md50iPAaYDz/wI4oj81fKZypMZWf5Hnm/tr7ZS5fM5Eo8x5HCBCKAulGkZuLmJJogNh9JJUlDZfjL5+drWN3pR0/rTNJ6MNf96VXET/eb7zT7qX5g70ej1dXos3r79p6b/zrZ27HV8jbeUZI8tn4bYfXxWLj2Y38ey/V9+jyXcMsp3VD751Ed0LtP7sGv9u/a/SvnHfxMtBWmYmsdffP3Wte36b7aP2e7yqbb99PFnJoO2CssvLvd0gdnz7JqiTq4TJz35qBo02omtk4mvM2z5bLk2gFMjgLpQeiJcnW6ajzwzjcXcpp9W+o7PVrb6i8/MUZe8tjlXWOCb28RkXYHv1h8h8KP58grfH/jRRLZ6+2Zy28dKlVSV49OVh5ng2L426aqKvuoXbRI0+BJIejLieP91BWdH2bbrn2/rr7Hr+PQ2OkPp2vI1S2rE7Cr7v1yE4vXvN1qfWs+vMshPoDv9Ur8ZyKstoErlU7D/Vco//ptVZpLilJrHX+X6rSvw36Q9t9vXk1I/NldRl5aPsmv7+fIx5yJlZ/m1nuVHnU9Pnd8o9lGBiJkcesecgifTkvu+J+GiqZIHjoMA6tqFY9l6Y2elJ2CNKuWZ/Dp8j5W/f7CeiqN1K10VrDTzPTmVr8CTUWoCtN6LqjBKjjfR+7AVz0TtoVqPrcSSVMvyW8ah2vdUjb01aNlxfNMvPb/bpKDSr7L/S/md2R836A64KmBN7Uy0vXg+uarlc6jz08TxK1XP554Gk3VA2HsoDnQOpXD7y3d5y5VPVoXyU0HUp75G3t7l/UndKKhzcX7BU8rsd0vwqluy1OcyFXgD54IA6orpO2DTqBC3rlRqnalbgeben5kgNvoy3F6hOlr+qlAt3XKkls5Q/aYhy8WWdbWknW0E2HF8UfAzeCg42Ab2v3XfFy/4UlWplqtQq67/UOengePf7/q9Jl25LYoaKp5f00lbhjIMsjcDZdLpR5M61C2V9t+uKUDgWhFAXbkkjbCamy/Szq6+DOZL2ZP2vrd6dd/vTAUMSctRvKzv6JunO5zbHyua7WzOq7n/pu+IbRHT6buNvlLHLp9NdY/f6fq9OmWtweXlZ57g7E5kMgjEdwhA1+WuU4vqF4N1qvBgrVjdW1qZcFEIoC5c67ZbMc3REv2nu0z/qTvYweveFew+709SULrTqx9EP6cUHp/teDr8d6AKtfdg0nXpx6unOg3ijaQwq5Jh+3UU9fmqtP92HePvgoqvJc+vai9VGep02eA1leZoqHyqX195TRx/WtH1G3fCduu7V92h11/AplOTjtXTp2wn8irlZ97TNS1PvY+JDMKhPJ5l69FSvseheFvvvE5U/kAFBFCXrvcRdT5NmvLXT/LoTqZxs7teTIfcXDN+4Kde1x1SHfM3+78/fnzZpgY6C3nd1tm28Pj04+FzGc3WqQWzNJbm0eksVemkUhem/Bz6YmykoDL7V23/TZpOVXyF9aQO9NQ++sFAstmyhsqnsPxTTyiawFcFm5nX6x9/letXrydKq+b7pjVl3/WXl89u6vqLCi9ah+7on/l8lJSf7sBvOo2/2BRt1GcuVOs7TiOew/Gb/oZFQ4kc+vwC+/vfarX6z/6MPyV6ykw/QecYM+HIzNNWjsHbX6L763TMWKiHSU8eev1/W/Q9NO7veDrQBoPpB1aAc0ALFHDmeh/zP9j/p6oo/SNbxspqxqHX/7eVj7KvAqy3QJV/1dQ5cDwEUNgi7ndQvJx3XX7p+5+n0zU6nchozRm6ZeLGjtV1iNa5Q6//z5vKP91Hq6hs4/JXARatrzhHpPAAAAAc0QIFAADgiAAKAADAEQEUAACAIwKoGtbTHTDIGwAAfwmdyBuQzIrOICUAAPwJtEA1wMyivnUmcQAAcI0IoAAAABwRQAEAADgigGpCqy3eXjPWAwCAS0QA1YTWs/ysPkUeeSIPAIC/gACqCct3ubt5FPlcyWr1ITyLBwDAdSOAasJyISGztQMA8GcQQAEAADgigAIAAHBEAAUAAOCIAKoB069ApHsrdIECAOBvIICqIZ5M2A8GMmEePAAA/gwmEwYAAHBECxQAAIAjAigAAABHBFAAAACOLjqAijtxM/8cAAA4pqvoRD59uhFfJrLiSTgAAHAEV5HC6z0MRGa/srT/BgAAOCT6QAEAADgigAIAAHB0HQFUqy1eOJZvcngAAOAIriSAepaf1afII0/kAQCAw7uOAGr5Lnc3jyKfK1mtPoRn8QAAwCFdSQC1kNDry33L/hsAAOCA6EQOAADgiAAKAADAEQEUAACAo6sIoKZfgUj3VugCBQAAjuGiA6h4MmE/GMiEefAAAMCRXMVkwgAAAMdEHygAAABHBFAAAACOCKAAAAAc1Qqg4k7czD8HAAD+kkY6kU+fbsSXiax4Eg4AAPwBjaTweg8DkdmvLO2/AQAArhl9oAAAABwRQAEAADhqJoBqtcULx/JNDg8AAPwBDQVQz/Kz+hR55Ik8AABw/ZoJoJbvcnfzKPK5ktXqQ3gWDwAAXLOGAqiFhF5f7lv23wAAAFeMTuQAAACOCKAAAAAcEUABAAA4aiSAmn4FIt1boQsUAAD4C2oFUPFkwn4wkAnz4AEAgD+ikcmEAQAA/hL6QAEAADgigAIAAHBEAAUAAOCIAAoAAMARARQAAIAjAigAAABHBFAAAACOCKAAAAAcEUABAAA4IoACAABwRAAFAADgiAAKAADAEQEUAACAIwIoAAAAJyL/D9Eeep0s//mYAAAAAElFTkSuQmCC;" vertex="1" parent="1">
          <mxGeometry x="160" y="360" width="592" height="507" as="geometry" />
        </mxCell>
        <mxCell id="w3rlq9oTvEazoZ1RIOvX-5" value="" style="endArrow=classic;html=1;rounded=0;strokeColor=#1d722e;" edge="1" parent="1">
          <mxGeometry width="50" height="50" relative="1" as="geometry">
            <mxPoint x="522" y="449" as="sourcePoint" />
            <mxPoint x="840" y="449" as="targetPoint" />
          </mxGeometry>
        </mxCell>
        <mxCell id="w3rlq9oTvEazoZ1RIOvX-6" value="" style="endArrow=classic;html=1;rounded=0;strokeColor=#1d722e;" edge="1" parent="1">
          <mxGeometry width="50" height="50" relative="1" as="geometry">
            <mxPoint x="480" y="467" as="sourcePoint" />
            <mxPoint x="840" y="467" as="targetPoint" />
          </mxGeometry>
        </mxCell>
        <mxCell id="w3rlq9oTvEazoZ1RIOvX-7" value="" style="endArrow=classic;html=1;rounded=0;strokeColor=#1d722e;" edge="1" parent="1">
          <mxGeometry width="50" height="50" relative="1" as="geometry">
            <mxPoint x="523" y="486" as="sourcePoint" />
            <mxPoint x="840" y="486" as="targetPoint" />
          </mxGeometry>
        </mxCell>
        <mxCell id="w3rlq9oTvEazoZ1RIOvX-8" value="" style="endArrow=classic;html=1;rounded=0;strokeColor=#1d722e;" edge="1" parent="1">
          <mxGeometry width="50" height="50" relative="1" as="geometry">
            <mxPoint x="389" y="540" as="sourcePoint" />
            <mxPoint x="840" y="540" as="targetPoint" />
          </mxGeometry>
        </mxCell>
        <mxCell id="w3rlq9oTvEazoZ1RIOvX-9" value="" style="endArrow=classic;html=1;rounded=0;strokeColor=#1d722e;" edge="1" parent="1">
          <mxGeometry width="50" height="50" relative="1" as="geometry">
            <mxPoint x="508" y="557" as="sourcePoint" />
            <mxPoint x="840" y="557" as="targetPoint" />
          </mxGeometry>
        </mxCell>
        <mxCell id="w3rlq9oTvEazoZ1RIOvX-10" value="" style="endArrow=classic;html=1;rounded=0;strokeColor=#1d722e;" edge="1" parent="1">
          <mxGeometry width="50" height="50" relative="1" as="geometry">
            <mxPoint x="746" y="575" as="sourcePoint" />
            <mxPoint x="840" y="575" as="targetPoint" />
          </mxGeometry>
        </mxCell>
        <mxCell id="w3rlq9oTvEazoZ1RIOvX-11" value="" style="endArrow=classic;html=1;rounded=0;strokeColor=#1d722e;" edge="1" parent="1">
          <mxGeometry width="50" height="50" relative="1" as="geometry">
            <mxPoint x="730" y="613.08" as="sourcePoint" />
            <mxPoint x="840" y="613" as="targetPoint" />
          </mxGeometry>
        </mxCell>
        <mxCell id="w3rlq9oTvEazoZ1RIOvX-12" value="" style="endArrow=classic;html=1;rounded=0;strokeColor=#1d722e;" edge="1" parent="1">
          <mxGeometry width="50" height="50" relative="1" as="geometry">
            <mxPoint x="530" y="630.08" as="sourcePoint" />
            <mxPoint x="840" y="630" as="targetPoint" />
          </mxGeometry>
        </mxCell>
        <mxCell id="w3rlq9oTvEazoZ1RIOvX-13" value="" style="endArrow=classic;html=1;rounded=0;strokeColor=#1d722e;" edge="1" parent="1">
          <mxGeometry width="50" height="50" relative="1" as="geometry">
            <mxPoint x="530" y="664.08" as="sourcePoint" />
            <mxPoint x="840" y="664" as="targetPoint" />
          </mxGeometry>
        </mxCell>
        <mxCell id="w3rlq9oTvEazoZ1RIOvX-14" value="" style="endArrow=classic;html=1;rounded=0;strokeColor=#1d722e;" edge="1" parent="1">
          <mxGeometry width="50" height="50" relative="1" as="geometry">
            <mxPoint x="510" y="683.08" as="sourcePoint" />
            <mxPoint x="840" y="683" as="targetPoint" />
          </mxGeometry>
        </mxCell>
        <mxCell id="w3rlq9oTvEazoZ1RIOvX-15" value="" style="endArrow=classic;html=1;rounded=0;strokeColor=#1d722e;" edge="1" parent="1">
          <mxGeometry width="50" height="50" relative="1" as="geometry">
            <mxPoint x="479" y="755.08" as="sourcePoint" />
            <mxPoint x="840" y="755" as="targetPoint" />
          </mxGeometry>
        </mxCell>
        <mxCell id="w3rlq9oTvEazoZ1RIOvX-16" value="" style="endArrow=classic;html=1;rounded=0;strokeColor=#1d722e;" edge="1" parent="1">
          <mxGeometry width="50" height="50" relative="1" as="geometry">
            <mxPoint x="480" y="772.08" as="sourcePoint" />
            <mxPoint x="841" y="772" as="targetPoint" />
          </mxGeometry>
        </mxCell>
        <mxCell id="w3rlq9oTvEazoZ1RIOvX-17" value="" style="endArrow=classic;html=1;rounded=0;strokeColor=#1d722e;" edge="1" parent="1">
          <mxGeometry width="50" height="50" relative="1" as="geometry">
            <mxPoint x="600" y="790.08" as="sourcePoint" />
            <mxPoint x="840" y="790" as="targetPoint" />
          </mxGeometry>
        </mxCell>
        <mxCell id="w3rlq9oTvEazoZ1RIOvX-18" value="" style="endArrow=classic;startArrow=classic;html=1;rounded=0;strokeColor=#a11b1b;exitX=-0.007;exitY=0.967;exitDx=0;exitDy=0;exitPerimeter=0;" edge="1" parent="1">
          <mxGeometry width="50" height="50" relative="1" as="geometry">
            <mxPoint x="155.85599999999977" y="848.269" as="sourcePoint" />
            <mxPoint x="160" y="376" as="targetPoint" />
            <Array as="points">
              <mxPoint x="130" y="848" />
              <mxPoint x="130" y="416" />
              <mxPoint x="130" y="376" />
            </Array>
          </mxGeometry>
        </mxCell>
        <mxCell id="w3rlq9oTvEazoZ1RIOvX-19" value="&lt;font color=&quot;#a11b1b&quot;&gt;&lt;b&gt;T(n)&lt;/b&gt;&lt;/font&gt;" style="text;html=1;align=center;verticalAlign=middle;resizable=0;points=[];autosize=1;strokeColor=none;fillColor=none;" vertex="1" parent="1">
          <mxGeometry x="80" y="598.5" width="50" height="30" as="geometry" />
        </mxCell>
        <mxCell id="w3rlq9oTvEazoZ1RIOvX-21" value="" style="endArrow=classic;html=1;rounded=0;strokeColor=#1d722e;" edge="1" parent="1">
          <mxGeometry width="50" height="50" relative="1" as="geometry">
            <mxPoint x="350" y="430" as="sourcePoint" />
            <mxPoint x="840" y="430" as="targetPoint" />
          </mxGeometry>
        </mxCell>
        <mxCell id="w3rlq9oTvEazoZ1RIOvX-22" value="" style="endArrow=classic;html=1;rounded=0;strokeColor=#1d722e;" edge="1" parent="1">
          <mxGeometry width="50" height="50" relative="1" as="geometry">
            <mxPoint x="370" y="395" as="sourcePoint" />
            <mxPoint x="840" y="395" as="targetPoint" />
          </mxGeometry>
        </mxCell>
        <mxCell id="w3rlq9oTvEazoZ1RIOvX-23" value="&lt;font color=&quot;#1d722e&quot;&gt;&lt;b&gt;1&lt;/b&gt;&lt;/font&gt;" style="text;html=1;align=center;verticalAlign=middle;resizable=0;points=[];autosize=1;strokeColor=none;fillColor=none;" vertex="1" parent="1">
          <mxGeometry x="837" y="380" width="30" height="30" as="geometry" />
        </mxCell>
        <mxCell id="w3rlq9oTvEazoZ1RIOvX-24" value="&lt;font color=&quot;#1d722e&quot;&gt;&lt;b&gt;1&lt;/b&gt;&lt;/font&gt;" style="text;html=1;align=center;verticalAlign=middle;resizable=0;points=[];autosize=1;strokeColor=none;fillColor=none;" vertex="1" parent="1">
          <mxGeometry x="837" y="414" width="30" height="30" as="geometry" />
        </mxCell>
        <mxCell id="w3rlq9oTvEazoZ1RIOvX-25" value="&lt;font color=&quot;#1d722e&quot;&gt;&lt;b&gt;1&lt;/b&gt;&lt;/font&gt;" style="text;html=1;align=center;verticalAlign=middle;resizable=0;points=[];autosize=1;strokeColor=none;fillColor=none;" vertex="1" parent="1">
          <mxGeometry x="837" y="434" width="30" height="30" as="geometry" />
        </mxCell>
        <mxCell id="w3rlq9oTvEazoZ1RIOvX-26" value="&lt;font color=&quot;#1d722e&quot;&gt;&lt;b&gt;n&lt;/b&gt;&lt;/font&gt;" style="text;html=1;align=center;verticalAlign=middle;resizable=0;points=[];autosize=1;strokeColor=none;fillColor=none;" vertex="1" parent="1">
          <mxGeometry x="837" y="452" width="30" height="30" as="geometry" />
        </mxCell>
        <mxCell id="w3rlq9oTvEazoZ1RIOvX-27" value="&lt;font color=&quot;#1d722e&quot;&gt;&lt;b&gt;n&lt;/b&gt;&lt;/font&gt;" style="text;html=1;align=center;verticalAlign=middle;resizable=0;points=[];autosize=1;strokeColor=none;fillColor=none;" vertex="1" parent="1">
          <mxGeometry x="837" y="470" width="30" height="30" as="geometry" />
        </mxCell>
        <mxCell id="w3rlq9oTvEazoZ1RIOvX-28" value="&lt;font color=&quot;#1d722e&quot;&gt;&lt;b&gt;1&lt;/b&gt;&lt;/font&gt;" style="text;html=1;align=center;verticalAlign=middle;resizable=0;points=[];autosize=1;strokeColor=none;fillColor=none;" vertex="1" parent="1">
          <mxGeometry x="837" y="524" width="30" height="30" as="geometry" />
        </mxCell>
        <mxCell id="w3rlq9oTvEazoZ1RIOvX-29" value="&lt;font color=&quot;#1d722e&quot;&gt;&lt;b&gt;n&lt;/b&gt;&lt;/font&gt;" style="text;html=1;align=center;verticalAlign=middle;resizable=0;points=[];autosize=1;strokeColor=none;fillColor=none;" vertex="1" parent="1">
          <mxGeometry x="837" y="542" width="30" height="30" as="geometry" />
        </mxCell>
        <mxCell id="w3rlq9oTvEazoZ1RIOvX-30" value="&lt;font color=&quot;#1d722e&quot;&gt;&lt;b&gt;n&lt;/b&gt;&lt;/font&gt;" style="text;html=1;align=center;verticalAlign=middle;resizable=0;points=[];autosize=1;strokeColor=none;fillColor=none;" vertex="1" parent="1">
          <mxGeometry x="837" y="560" width="30" height="30" as="geometry" />
        </mxCell>
        <mxCell id="w3rlq9oTvEazoZ1RIOvX-31" value="&lt;font color=&quot;#1d722e&quot;&gt;&lt;b&gt;1&lt;/b&gt;&lt;/font&gt;" style="text;html=1;align=center;verticalAlign=middle;resizable=0;points=[];autosize=1;strokeColor=none;fillColor=none;" vertex="1" parent="1">
          <mxGeometry x="837" y="597.5" width="30" height="30" as="geometry" />
        </mxCell>
        <mxCell id="w3rlq9oTvEazoZ1RIOvX-32" value="&lt;font color=&quot;#1d722e&quot;&gt;&lt;b&gt;1&lt;/b&gt;&lt;/font&gt;" style="text;html=1;align=center;verticalAlign=middle;resizable=0;points=[];autosize=1;strokeColor=none;fillColor=none;" vertex="1" parent="1">
          <mxGeometry x="837" y="614.5" width="30" height="30" as="geometry" />
        </mxCell>
        <mxCell id="w3rlq9oTvEazoZ1RIOvX-33" value="&lt;font color=&quot;#1d722e&quot;&gt;&lt;b&gt;1&lt;/b&gt;&lt;/font&gt;" style="text;html=1;align=center;verticalAlign=middle;resizable=0;points=[];autosize=1;strokeColor=none;fillColor=none;" vertex="1" parent="1">
          <mxGeometry x="837" y="648.5" width="30" height="30" as="geometry" />
        </mxCell>
        <mxCell id="w3rlq9oTvEazoZ1RIOvX-34" value="&lt;font color=&quot;#1d722e&quot;&gt;&lt;b&gt;1&lt;/b&gt;&lt;/font&gt;" style="text;html=1;align=center;verticalAlign=middle;resizable=0;points=[];autosize=1;strokeColor=none;fillColor=none;" vertex="1" parent="1">
          <mxGeometry x="837" y="668" width="30" height="30" as="geometry" />
        </mxCell>
        <mxCell id="w3rlq9oTvEazoZ1RIOvX-35" value="&lt;font color=&quot;#1d722e&quot;&gt;&lt;b&gt;n&lt;/b&gt;&lt;/font&gt;" style="text;html=1;align=center;verticalAlign=middle;resizable=0;points=[];autosize=1;strokeColor=none;fillColor=none;" vertex="1" parent="1">
          <mxGeometry x="837" y="739" width="30" height="30" as="geometry" />
        </mxCell>
        <mxCell id="w3rlq9oTvEazoZ1RIOvX-36" value="&lt;font color=&quot;#1d722e&quot;&gt;&lt;b&gt;n&lt;/b&gt;&lt;/font&gt;" style="text;html=1;align=center;verticalAlign=middle;resizable=0;points=[];autosize=1;strokeColor=none;fillColor=none;" vertex="1" parent="1">
          <mxGeometry x="837" y="758" width="30" height="30" as="geometry" />
        </mxCell>
        <mxCell id="w3rlq9oTvEazoZ1RIOvX-37" value="&lt;font color=&quot;#1d722e&quot;&gt;&lt;b&gt;T(n!)&lt;/b&gt;&lt;/font&gt;" style="text;html=1;align=center;verticalAlign=middle;resizable=0;points=[];autosize=1;strokeColor=none;fillColor=none;" vertex="1" parent="1">
          <mxGeometry x="836" y="776" width="50" height="30" as="geometry" />
        </mxCell>
        <mxCell id="w3rlq9oTvEazoZ1RIOvX-38" value="" style="endArrow=classic;html=1;rounded=0;strokeColor=#1d722e;" edge="1" parent="1">
          <mxGeometry width="50" height="50" relative="1" as="geometry">
            <mxPoint x="276" y="736" as="sourcePoint" />
            <mxPoint x="840.5" y="736" as="targetPoint" />
          </mxGeometry>
        </mxCell>
        <mxCell id="w3rlq9oTvEazoZ1RIOvX-39" value="&lt;font color=&quot;#1d722e&quot;&gt;&lt;b&gt;1&lt;/b&gt;&lt;/font&gt;" style="text;html=1;align=center;verticalAlign=middle;resizable=0;points=[];autosize=1;strokeColor=none;fillColor=none;" vertex="1" parent="1">
          <mxGeometry x="836" y="720" width="30" height="30" as="geometry" />
        </mxCell>
        <mxCell id="w3rlq9oTvEazoZ1RIOvX-40" value="" style="endArrow=none;html=1;rounded=0;strokeColor=#26599c;" edge="1" parent="1">
          <mxGeometry width="50" height="50" relative="1" as="geometry">
            <mxPoint x="840" y="810" as="sourcePoint" />
            <mxPoint x="1000" y="810" as="targetPoint" />
          </mxGeometry>
        </mxCell>
        <mxCell id="w3rlq9oTvEazoZ1RIOvX-41" value="&lt;font color=&quot;#26599c&quot;&gt;&lt;b&gt;T(n) = T(n!) + 6n + 8&lt;/b&gt;&lt;/font&gt;" style="text;html=1;align=center;verticalAlign=middle;resizable=0;points=[];autosize=1;strokeColor=none;fillColor=none;" vertex="1" parent="1">
          <mxGeometry x="854" y="810" width="130" height="30" as="geometry" />
        </mxCell>
        <mxCell id="w3rlq9oTvEazoZ1RIOvX-44" value="" style="endArrow=classic;html=1;rounded=0;strokeColor=#a11b1b;" edge="1" parent="1">
          <mxGeometry width="50" height="50" relative="1" as="geometry">
            <mxPoint x="920" y="791" as="sourcePoint" />
            <mxPoint x="886" y="790.8" as="targetPoint" />
          </mxGeometry>
        </mxCell>
        <mxCell id="w3rlq9oTvEazoZ1RIOvX-46" value="&lt;font color=&quot;#a11b1b&quot;&gt;&lt;b&gt;Recursion happens&lt;/b&gt;&lt;/font&gt;" style="text;html=1;align=left;verticalAlign=middle;resizable=0;points=[];autosize=1;strokeColor=none;fillColor=none;" vertex="1" parent="1">
          <mxGeometry x="920" y="776" width="130" height="30" as="geometry" />
        </mxCell>
        <mxCell id="w3rlq9oTvEazoZ1RIOvX-47" value="" style="endArrow=classic;html=1;rounded=0;strokeColor=#a11b1b;" edge="1" parent="1">
          <mxGeometry width="50" height="50" relative="1" as="geometry">
            <mxPoint x="920" y="880" as="sourcePoint" />
            <mxPoint x="920" y="840" as="targetPoint" />
          </mxGeometry>
        </mxCell>
        <mxCell id="w3rlq9oTvEazoZ1RIOvX-48" value="&lt;font color=&quot;#a11b1b&quot;&gt;&lt;b&gt;=&amp;nbsp;&lt;/b&gt;&lt;span style=&quot;font-size: 12px;&quot;&gt;&lt;b&gt;T(n!) + 6n + 8&lt;/b&gt;&lt;/span&gt;&lt;/font&gt;&lt;div&gt;&lt;b style=&quot;color: rgb(161, 27, 27); background-color: initial;&quot;&gt;Eliminating the constants:&lt;/b&gt;&lt;div&gt;&lt;font color=&quot;#a11b1b&quot;&gt;&lt;b&gt;= T(n!) + n&lt;/b&gt;&lt;/font&gt;&lt;/div&gt;&lt;div&gt;&lt;font color=&quot;#a11b1b&quot;&gt;&lt;b&gt;Getting the highest degree:&lt;/b&gt;&lt;/font&gt;&lt;/div&gt;&lt;div&gt;&lt;font color=&quot;#a11b1b&quot;&gt;&lt;b&gt;= n!&lt;/b&gt;&lt;/font&gt;&lt;/div&gt;&lt;div&gt;&lt;font color=&quot;#a11b1b&quot;&gt;&lt;b&gt;Time Complexity:&lt;/b&gt;&lt;/font&gt;&lt;/div&gt;&lt;div&gt;&lt;font color=&quot;#a11b1b&quot;&gt;&lt;b&gt;= O(n!)&lt;/b&gt;&lt;/font&gt;&lt;/div&gt;&lt;/div&gt;" style="text;html=1;align=center;verticalAlign=middle;resizable=0;points=[];autosize=1;strokeColor=none;fillColor=none;" vertex="1" parent="1">
          <mxGeometry x="829" y="890" width="180" height="110" as="geometry" />
        </mxCell>
      </root>
    </mxGraphModel>
  </diagram>
</mxfile>
